<mxfile host="app.diagrams.net" modified="2023-09-07T11:20:40.561Z" agent="Mozilla/5.0 (Windows NT 10.0; Win64; x64) AppleWebKit/537.36 (KHTML, like Gecko) Chrome/114.0.0.0 YaBrowser/23.7.4.971 Yowser/2.5 Safari/537.36" etag="CNx8liDkVNz_AaiMoEdg" version="21.7.2" type="device">
  <diagram name="Страница — 1" id="Ox6prSKEdUuI-gO1BmaO">
    <mxGraphModel dx="1877" dy="1752" grid="1" gridSize="10" guides="1" tooltips="1" connect="1" arrows="1" fold="1" page="1" pageScale="1" pageWidth="827" pageHeight="1169" math="0" shadow="0">
      <root>
        <mxCell id="0" />
        <mxCell id="1" parent="0" />
        <mxCell id="poAqrMot76HQUkn58fps-29" style="edgeStyle=orthogonalEdgeStyle;rounded=0;orthogonalLoop=1;jettySize=auto;html=1;exitX=0.75;exitY=0.1;exitDx=0;exitDy=0;exitPerimeter=0;" edge="1" parent="1" source="poAqrMot76HQUkn58fps-1" target="poAqrMot76HQUkn58fps-6">
          <mxGeometry relative="1" as="geometry" />
        </mxCell>
        <mxCell id="poAqrMot76HQUkn58fps-1" value="пользователь&lt;br&gt;" style="shape=umlActor;verticalLabelPosition=bottom;verticalAlign=top;html=1;outlineConnect=0;rotation=0;" vertex="1" parent="1">
          <mxGeometry x="50" y="230" width="30" height="60" as="geometry" />
        </mxCell>
        <mxCell id="poAqrMot76HQUkn58fps-2" value="" style="endArrow=none;html=1;rounded=0;" edge="1" parent="1" source="poAqrMot76HQUkn58fps-1" target="poAqrMot76HQUkn58fps-3">
          <mxGeometry width="50" height="50" relative="1" as="geometry">
            <mxPoint x="390" y="330" as="sourcePoint" />
            <mxPoint x="320" y="330" as="targetPoint" />
          </mxGeometry>
        </mxCell>
        <mxCell id="poAqrMot76HQUkn58fps-3" value="Поиск лекарств" style="ellipse;whiteSpace=wrap;html=1;" vertex="1" parent="1">
          <mxGeometry x="260" y="400" width="120" height="80" as="geometry" />
        </mxCell>
        <mxCell id="poAqrMot76HQUkn58fps-4" value="" style="endArrow=none;html=1;rounded=0;" edge="1" parent="1" source="poAqrMot76HQUkn58fps-1" target="poAqrMot76HQUkn58fps-5">
          <mxGeometry width="50" height="50" relative="1" as="geometry">
            <mxPoint x="390" y="290" as="sourcePoint" />
            <mxPoint x="320" y="230" as="targetPoint" />
          </mxGeometry>
        </mxCell>
        <mxCell id="poAqrMot76HQUkn58fps-5" value="Просмотр ассортимента" style="ellipse;whiteSpace=wrap;html=1;" vertex="1" parent="1">
          <mxGeometry x="60" y="390" width="120" height="80" as="geometry" />
        </mxCell>
        <mxCell id="poAqrMot76HQUkn58fps-32" style="edgeStyle=orthogonalEdgeStyle;rounded=0;orthogonalLoop=1;jettySize=auto;html=1;" edge="1" parent="1" source="poAqrMot76HQUkn58fps-6" target="poAqrMot76HQUkn58fps-19">
          <mxGeometry relative="1" as="geometry" />
        </mxCell>
        <mxCell id="poAqrMot76HQUkn58fps-6" value="покупатель" style="shape=umlActor;verticalLabelPosition=bottom;verticalAlign=top;html=1;outlineConnect=0;" vertex="1" parent="1">
          <mxGeometry x="40" y="110" width="30" height="60" as="geometry" />
        </mxCell>
        <mxCell id="poAqrMot76HQUkn58fps-10" value="" style="endArrow=none;html=1;rounded=0;" edge="1" parent="1" source="poAqrMot76HQUkn58fps-11" target="poAqrMot76HQUkn58fps-6">
          <mxGeometry width="50" height="50" relative="1" as="geometry">
            <mxPoint x="230" y="270" as="sourcePoint" />
            <mxPoint x="440" y="280" as="targetPoint" />
          </mxGeometry>
        </mxCell>
        <mxCell id="poAqrMot76HQUkn58fps-11" value="Заказ и бронирование" style="ellipse;whiteSpace=wrap;html=1;" vertex="1" parent="1">
          <mxGeometry x="-130" y="40" width="120" height="80" as="geometry" />
        </mxCell>
        <mxCell id="poAqrMot76HQUkn58fps-12" value="" style="endArrow=none;html=1;rounded=0;" edge="1" parent="1" source="poAqrMot76HQUkn58fps-13" target="poAqrMot76HQUkn58fps-6">
          <mxGeometry width="50" height="50" relative="1" as="geometry">
            <mxPoint x="200" y="320" as="sourcePoint" />
            <mxPoint x="440" y="280" as="targetPoint" />
          </mxGeometry>
        </mxCell>
        <mxCell id="poAqrMot76HQUkn58fps-13" value="Информация о наличии" style="ellipse;whiteSpace=wrap;html=1;" vertex="1" parent="1">
          <mxGeometry x="-120" y="140" width="120" height="80" as="geometry" />
        </mxCell>
        <mxCell id="poAqrMot76HQUkn58fps-15" value="" style="endArrow=none;html=1;rounded=0;entryX=0;entryY=0.3333333333333333;entryDx=0;entryDy=0;entryPerimeter=0;" edge="1" parent="1" source="poAqrMot76HQUkn58fps-16" target="poAqrMot76HQUkn58fps-6">
          <mxGeometry width="50" height="50" relative="1" as="geometry">
            <mxPoint x="440" y="70" as="sourcePoint" />
            <mxPoint x="440" y="280" as="targetPoint" />
          </mxGeometry>
        </mxCell>
        <mxCell id="poAqrMot76HQUkn58fps-16" value="Сравнение цен" style="ellipse;whiteSpace=wrap;html=1;" vertex="1" parent="1">
          <mxGeometry x="-40" y="-30" width="120" height="80" as="geometry" />
        </mxCell>
        <mxCell id="poAqrMot76HQUkn58fps-17" value="" style="endArrow=none;html=1;rounded=0;entryX=0.5;entryY=0.5;entryDx=0;entryDy=0;entryPerimeter=0;" edge="1" parent="1" source="poAqrMot76HQUkn58fps-18" target="poAqrMot76HQUkn58fps-6">
          <mxGeometry width="50" height="50" relative="1" as="geometry">
            <mxPoint x="647.5" y="60" as="sourcePoint" />
            <mxPoint x="60" y="136" as="targetPoint" />
          </mxGeometry>
        </mxCell>
        <mxCell id="poAqrMot76HQUkn58fps-18" value="Обратная связь и отзывы" style="ellipse;whiteSpace=wrap;html=1;" vertex="1" parent="1">
          <mxGeometry x="90" y="-40" width="120" height="80" as="geometry" />
        </mxCell>
        <mxCell id="poAqrMot76HQUkn58fps-19" value="фармацефт" style="shape=umlActor;verticalLabelPosition=bottom;verticalAlign=top;html=1;outlineConnect=0;" vertex="1" parent="1">
          <mxGeometry x="260" y="260" width="30" height="60" as="geometry" />
        </mxCell>
        <mxCell id="poAqrMot76HQUkn58fps-20" value="" style="endArrow=none;html=1;rounded=0;" edge="1" parent="1" source="poAqrMot76HQUkn58fps-21" target="poAqrMot76HQUkn58fps-19">
          <mxGeometry width="50" height="50" relative="1" as="geometry">
            <mxPoint x="390" y="330" as="sourcePoint" />
            <mxPoint x="440" y="280" as="targetPoint" />
            <Array as="points" />
          </mxGeometry>
        </mxCell>
        <mxCell id="poAqrMot76HQUkn58fps-22" value="" style="endArrow=none;html=1;rounded=0;exitX=1;exitY=1;exitDx=0;exitDy=0;exitPerimeter=0;" edge="1" parent="1" source="poAqrMot76HQUkn58fps-6" target="poAqrMot76HQUkn58fps-21">
          <mxGeometry width="50" height="50" relative="1" as="geometry">
            <mxPoint x="590" y="120" as="sourcePoint" />
            <mxPoint x="690" y="303" as="targetPoint" />
          </mxGeometry>
        </mxCell>
        <mxCell id="poAqrMot76HQUkn58fps-21" value="Консультация со специалистом" style="ellipse;whiteSpace=wrap;html=1;" vertex="1" parent="1">
          <mxGeometry x="300" y="160" width="120" height="80" as="geometry" />
        </mxCell>
        <mxCell id="poAqrMot76HQUkn58fps-23" value="" style="endArrow=none;html=1;rounded=0;entryX=0;entryY=1;entryDx=0;entryDy=0;entryPerimeter=0;" edge="1" parent="1" source="poAqrMot76HQUkn58fps-24" target="poAqrMot76HQUkn58fps-6">
          <mxGeometry width="50" height="50" relative="1" as="geometry">
            <mxPoint x="430" y="350" as="sourcePoint" />
            <mxPoint x="440" y="280" as="targetPoint" />
          </mxGeometry>
        </mxCell>
        <mxCell id="poAqrMot76HQUkn58fps-24" value="Управление учетной записью" style="ellipse;whiteSpace=wrap;html=1;" vertex="1" parent="1">
          <mxGeometry x="350" y="-20" width="120" height="80" as="geometry" />
        </mxCell>
        <mxCell id="poAqrMot76HQUkn58fps-25" value="" style="endArrow=none;html=1;rounded=0;" edge="1" parent="1" source="poAqrMot76HQUkn58fps-26" target="poAqrMot76HQUkn58fps-6">
          <mxGeometry width="50" height="50" relative="1" as="geometry">
            <mxPoint x="690" y="120" as="sourcePoint" />
            <mxPoint x="440" y="280" as="targetPoint" />
          </mxGeometry>
        </mxCell>
        <mxCell id="poAqrMot76HQUkn58fps-26" value="Программа лояльности" style="ellipse;whiteSpace=wrap;html=1;" vertex="1" parent="1">
          <mxGeometry x="220" y="-40" width="120" height="80" as="geometry" />
        </mxCell>
        <mxCell id="poAqrMot76HQUkn58fps-27" value="" style="endArrow=none;html=1;rounded=0;exitX=0.005;exitY=0.608;exitDx=0;exitDy=0;exitPerimeter=0;" edge="1" parent="1" source="poAqrMot76HQUkn58fps-28" target="poAqrMot76HQUkn58fps-6">
          <mxGeometry width="50" height="50" relative="1" as="geometry">
            <mxPoint x="560" y="360" as="sourcePoint" />
            <mxPoint x="440" y="280" as="targetPoint" />
          </mxGeometry>
        </mxCell>
        <mxCell id="poAqrMot76HQUkn58fps-28" value="Оплата и доставка" style="ellipse;whiteSpace=wrap;html=1;" vertex="1" parent="1">
          <mxGeometry x="380" y="70" width="120" height="80" as="geometry" />
        </mxCell>
      </root>
    </mxGraphModel>
  </diagram>
</mxfile>
